<svg width="36" height="54" viewBox="0 0 36 54" fill="none" xmlns="http://www.w3.org/2000/svg">
<g clip-path="url(#clip0_28_290)">
<path d="M9.25 53.2122C14.08 53.2122 18 49.2922 18 44.4622V35.7122H9.25C4.42 35.7122 0.5 39.6322 0.5 44.4622C0.5 49.2922 4.42 53.2122 9.25 53.2122Z" fill="#0ACF83"/>
<path d="M0.5 26.9622C0.5 22.1322 4.42 18.2122 9.25 18.2122H18V35.7122H9.25C4.42 35.7122 0.5 31.7922 0.5 26.9622Z" fill="#A259FF"/>
<path d="M0.5 9.46216C0.5 4.63216 4.42 0.712158 9.25 0.712158H18V18.2122H9.25C4.42 18.2122 0.5 14.2922 0.5 9.46216Z" fill="#F24E1E"/>
<path d="M18 0.712158H26.75C31.58 0.712158 35.5 4.63216 35.5 9.46216C35.5 14.2922 31.58 18.2122 26.75 18.2122H18V0.712158Z" fill="#FF7262"/>
<path d="M35.5 26.9622C35.5 31.7922 31.58 35.7122 26.75 35.7122C21.92 35.7122 18 31.7922 18 26.9622C18 22.1322 21.92 18.2122 26.75 18.2122C31.58 18.2122 35.5 22.1322 35.5 26.9622Z" fill="#1ABCFE"/>
</g>
<defs>
<clipPath id="clip0_28_290">
<rect width="35" height="52.5" fill="white" transform="translate(0.5 0.712158)"/>
</clipPath>
</defs>
</svg>
