<svg width="60" height="67" viewBox="0 0 60 67" fill="none" xmlns="http://www.w3.org/2000/svg">
<path d="M26.9785 1.66398C28.5985 0.736701 30.7086 0.732513 32.3272 1.66398C40.4703 6.26524 48.6159 10.8593 56.7576 15.4633C58.2889 16.3259 59.3132 18.0302 59.2976 19.7947V47.4776C59.309 49.3152 58.1835 51.0601 56.5679 51.9032C48.4516 56.4791 40.3395 61.0606 32.2246 65.6365C30.5711 66.5819 28.4187 66.5091 26.8168 65.4861C24.3835 64.0756 21.9461 62.672 19.5126 61.2628C19.0153 60.9663 18.4548 60.7304 18.1036 60.2482C18.414 59.8299 18.969 59.7777 19.42 59.5951C20.4357 59.2721 21.3685 58.7537 22.3016 58.2506C22.5376 58.0891 22.8257 58.151 23.0518 58.2955C25.1326 59.4885 27.1949 60.7162 29.2826 61.8978C29.728 62.1549 30.179 61.8136 30.5597 61.6013C38.5242 57.0999 46.4986 52.6155 54.4618 48.1126C54.7569 47.9707 54.92 47.6575 54.896 47.3343C54.9016 38.2023 54.8974 29.0686 54.8988 19.9366C54.9325 19.5699 54.7203 19.2327 54.3887 19.0826C46.3006 14.5277 38.2166 9.96574 30.1299 5.40963C29.8431 5.21247 29.4646 5.21191 29.1772 5.40823C21.0905 9.96574 13.0079 14.5319 4.92115 19.0866C4.59072 19.2369 4.36897 19.5685 4.40829 19.9366C4.40969 29.0686 4.40829 38.2023 4.40829 47.3357C4.37957 47.6587 4.55507 47.9654 4.84808 48.1043C7.00607 49.328 9.16685 50.5431 11.3262 51.7626C12.5428 52.4174 14.0364 52.8065 15.3767 52.3048C16.5595 51.8806 17.3886 50.6736 17.366 49.4178C17.3772 40.3391 17.3604 31.259 17.3744 22.1816C17.3448 21.7786 17.7271 21.4456 18.119 21.4836C19.1559 21.4766 20.1941 21.4696 21.231 21.4863C21.6638 21.4766 21.9617 21.9105 21.9082 22.3166C21.904 31.4528 21.9193 40.5892 21.9012 49.7254C21.904 52.1603 20.9036 54.8097 18.6514 56.0011C15.8768 57.4385 12.4473 57.1336 9.70623 55.7554C7.33324 54.571 5.06867 53.1732 2.7378 51.9044C1.11802 51.066 -0.0019243 49.314 0.00947762 47.4778V19.7947C-0.00750892 17.9936 1.05752 16.2584 2.63657 15.4084C10.7515 10.8288 18.865 6.24569 26.9785 1.66398Z" fill="#8CC84B"/>
<path d="M34.0578 20.8402C37.597 20.6124 41.386 20.7052 44.5708 22.4488C47.0367 23.7849 48.4037 26.5891 48.4472 29.3286C48.3784 29.6981 47.9921 29.9019 47.6393 29.8765C46.6125 29.8752 45.5854 29.8905 44.5585 29.8696C44.1229 29.8863 43.8697 29.4847 43.815 29.0996C43.52 27.7888 42.8051 26.4906 41.5714 25.8584C39.6775 24.9102 37.4816 24.9579 35.4165 24.9777C33.9089 25.0577 32.2877 25.1883 31.0104 26.0748C30.0299 26.7464 29.732 28.102 30.082 29.1938C30.412 29.9778 31.3169 30.2307 32.0573 30.4639C36.3226 31.5794 40.8424 31.4684 45.0262 32.9365C46.7584 33.5349 48.4528 34.6984 49.0457 36.512C49.8213 38.9427 49.4813 41.8481 47.752 43.7995C46.3495 45.4053 44.3069 46.2793 42.2697 46.754C39.5596 47.3583 36.747 47.3736 33.9947 47.1053C31.4067 46.8103 28.7135 46.1303 26.7156 44.367C25.0072 42.8836 24.1728 40.5723 24.2556 38.3414C24.2754 37.9647 24.6505 37.702 25.0114 37.7329C26.0455 37.7246 27.0796 37.7218 28.1137 37.7343C28.5267 37.7048 28.8329 38.0617 28.8541 38.451C29.0449 39.6999 29.5142 41.0106 30.6032 41.7511C32.7049 43.107 35.342 43.0141 37.7485 43.0521C39.7422 42.9636 41.9803 42.9369 43.6072 41.6191C44.4656 40.8675 44.72 39.6101 44.488 38.5283C44.2367 37.615 43.2812 37.1894 42.4608 36.9111C38.2502 35.5791 33.6799 36.0624 29.51 34.5562C27.8172 33.958 26.1802 32.8269 25.5298 31.0877C24.6223 28.6263 25.0382 25.5817 26.9488 23.6962C28.8117 21.8207 31.501 21.0985 34.0578 20.8399V20.8402Z" fill="#8CC84B"/>
</svg>
