<svg width="701" height="268" viewBox="0 0 701 268" fill="none" xmlns="http://www.w3.org/2000/svg">
<path d="M550.491 251.462C550.228 259.136 543.924 265.277 536.185 265.277H165.815C158.076 265.277 151.772 259.136 151.509 251.462H550.491Z" fill="#D9C6F4" stroke="black" stroke-linecap="square"/>
<path d="M336.186 251.312H375.075C376.927 251.312 378.428 252.814 378.428 254.666C378.428 256.518 376.927 258.02 375.075 258.02H336.186C334.333 258.02 332.832 256.518 332.832 254.666C332.832 252.814 334.333 251.312 336.186 251.312Z" fill="white" stroke="black" stroke-width="0.7" stroke-linecap="square"/>
<path d="M175.074 1.46216H528.778C535.661 1.46216 541.241 7.04201 541.241 13.9251V237.999C541.241 244.882 535.661 250.462 528.778 250.462H175.074C168.191 250.462 162.611 244.882 162.611 237.999V13.9251C162.611 7.04202 168.191 1.46216 175.074 1.46216Z" fill="#D9C6F4" stroke="black" stroke-linecap="square"/>
<path d="M189.888 19.9807H513.962C520.845 19.9807 526.425 25.5606 526.425 32.4437V219.481C526.425 226.364 520.845 231.944 513.962 231.944H189.888C183.005 231.944 177.425 226.364 177.425 219.481V32.4437C177.425 25.5606 183.005 19.9807 189.888 19.9807Z" fill="white" stroke="black" stroke-linecap="square"/>
<path d="M384.333 132.795H396.833V141.129H384.333V132.795ZM305.167 132.795H317.667V141.129H305.167V132.795ZM355.167 91.1288V103.629H346.833V91.1288H355.167ZM321.5 101.545L330.375 110.462L324.458 116.337L315.583 107.504L321.5 101.545ZM371.625 110.42L380.458 101.545L386.417 107.504L377.542 116.337L371.625 110.42ZM351 111.962C357.63 111.962 363.989 114.596 368.678 119.284C373.366 123.973 376 130.332 376 136.962C376 146.212 370.958 154.295 363.5 158.629V166.129C363.5 167.234 363.061 168.294 362.279 169.075C361.498 169.856 360.438 170.295 359.333 170.295H342.667C341.561 170.295 340.502 169.856 339.72 169.075C338.939 168.294 338.5 167.234 338.5 166.129V158.629C331.042 154.295 326 146.212 326 136.962C326 130.332 328.634 123.973 333.322 119.284C338.011 114.596 344.369 111.962 351 111.962ZM359.333 174.462V178.629C359.333 179.734 358.894 180.794 358.113 181.575C357.331 182.356 356.272 182.795 355.167 182.795H346.833C345.728 182.795 344.668 182.356 343.887 181.575C343.105 180.794 342.667 179.734 342.667 178.629V174.462H359.333ZM346.833 161.962H355.167V153.087C362.375 151.254 367.667 144.712 367.667 136.962C367.667 132.542 365.911 128.303 362.785 125.177C359.659 122.051 355.42 120.295 351 120.295C346.58 120.295 342.34 122.051 339.215 125.177C336.089 128.303 334.333 132.542 334.333 136.962C334.333 144.712 339.625 151.254 346.833 153.087V161.962Z" fill="#00676C"/>
<line y1="-0.5" x2="700" y2="-0.5" transform="matrix(0.999998 -0.00185786 0.00178583 0.999998 1 267.263)" stroke="black"/>
<path fill-rule="evenodd" clip-rule="evenodd" d="M66.9438 182.962C62.5846 182.962 59.0508 186.496 59.0508 190.855V210.334H57.4716V195.749C57.4716 193.133 55.3513 191.013 52.7358 191.013C50.1203 191.013 48 193.133 48 195.749V210.334V213.554V217.475C48 218.867 49.1282 219.995 50.52 219.995H59.0508V228.046H74.8368V210.334H77.9941V210.334H78.6101C83.5009 210.334 87.4657 206.369 87.4657 201.479V197.359C87.4657 194.743 85.3454 192.623 82.7299 192.623C80.1144 192.623 77.9941 194.743 77.9941 197.359V200.271H74.8368V190.855C74.8368 186.496 71.303 182.962 66.9438 182.962Z" fill="#00676C"/>
<path d="M52.896 265.342L45.3117 231.212H90.6883L83.104 265.342C82.9261 266.142 82.2159 266.712 81.3957 266.712H54.6043C53.7841 266.712 53.0739 266.142 52.896 265.342Z" fill="#D9C6F4" stroke="black" stroke-width="0.5"/>
<path d="M45.25 226.962C45.25 225.996 46.0335 225.212 47 225.212H89C89.9665 225.212 90.75 225.996 90.75 226.962V230.712H45.25V226.962Z" fill="#D9C6F4" stroke="black" stroke-width="0.5"/>
<path fill-rule="evenodd" clip-rule="evenodd" d="M613.106 207.962C611.961 207.962 611.05 208.922 611.109 210.065L613.902 264.065C613.957 265.128 614.835 265.962 615.899 265.962H660.101C661.165 265.962 662.043 265.128 662.098 264.065L662.47 256.875C662.938 256.933 663.413 256.962 663.894 256.962C671.626 256.962 677.894 249.351 677.894 239.962C677.894 230.707 671.804 223.179 664.224 222.967L664.891 210.065C664.95 208.922 664.039 207.962 662.894 207.962H613.106ZM662.782 250.835L663.914 228.962C667.293 228.977 671.894 232.758 671.894 239.962C671.894 247.18 667.275 250.962 663.894 250.962C663.535 250.962 663.162 250.92 662.782 250.835Z" fill="#00676C"/>
<path d="M624.145 245.525H623.11V245.018H625.018L623.871 247.026H624.993V247.535H623L624.145 245.525Z" fill="white"/>
<path d="M626.999 244.813C627.384 244.813 627.712 244.949 627.982 245.221C628.255 245.494 628.391 245.822 628.391 246.207C628.391 246.592 628.255 246.92 627.982 247.193C627.712 247.465 627.384 247.601 626.999 247.601C626.616 247.601 626.288 247.465 626.016 247.193C625.743 246.92 625.607 246.592 625.607 246.207C625.607 245.822 625.743 245.494 626.016 245.221C626.288 244.949 626.616 244.813 626.999 244.813ZM626.999 245.334C626.758 245.334 626.551 245.419 626.38 245.591C626.211 245.762 626.126 245.967 626.126 246.207C626.126 246.448 626.211 246.654 626.38 246.823C626.551 246.993 626.758 247.078 626.999 247.078C627.24 247.078 627.446 246.993 627.615 246.823C627.787 246.654 627.872 246.448 627.872 246.207C627.872 245.967 627.787 245.762 627.615 245.591C627.446 245.419 627.24 245.334 626.999 245.334Z" fill="white"/>
<path d="M629.487 245.693V247.535H628.978V245.018H629.487V245.312C629.593 245.025 629.805 244.881 630.125 244.881C630.397 244.881 630.613 244.978 630.773 245.172C630.934 245.365 631.018 245.607 631.023 245.899V247.535H630.516V245.918C630.516 245.773 630.463 245.649 630.357 245.547C630.251 245.442 630.125 245.39 629.978 245.39C629.833 245.39 629.707 245.441 629.601 245.542C629.543 245.602 629.504 245.653 629.487 245.693Z" fill="white"/>
<path d="M632.549 246.965C632.634 247.04 632.788 247.078 633.011 247.078C633.252 247.078 633.459 246.993 633.63 246.823C633.651 246.8 633.694 246.75 633.76 246.672L634.266 246.853C634.142 247.024 634.052 247.137 633.997 247.193C633.724 247.465 633.396 247.601 633.011 247.601C632.628 247.601 632.3 247.465 632.028 247.193C631.756 246.92 631.619 246.592 631.619 246.207C631.619 245.822 631.756 245.494 632.028 245.221C632.3 244.949 632.628 244.813 633.011 244.813C633.34 244.813 633.629 244.912 633.877 245.111C633.918 245.145 633.958 245.182 633.997 245.221C634.013 245.238 634.06 245.289 634.136 245.375L633.882 245.632L632.549 246.965ZM633.395 245.4C633.338 245.356 633.21 245.334 633.011 245.334C632.771 245.334 632.566 245.419 632.395 245.591C632.225 245.76 632.14 245.966 632.14 246.207C632.14 246.404 632.162 246.532 632.206 246.591L633.395 245.4Z" fill="white"/>
<path d="M651.308 232.418V232.596C651.308 232.73 651.263 247.312 646.41 247.312C641.557 247.312 641.49 232.73 641.49 232.596V232.418H637.104V247.646H638.796V232.752H639.798C639.82 233.532 639.909 236.826 640.622 240.077C641.69 245.042 643.694 247.646 646.41 247.646C649.126 247.646 651.13 245.042 652.199 240.077C653 236.381 653 232.619 653 232.596V232.418H651.308Z" fill="white"/>
<path d="M644.941 233.554C643.872 228.589 641.868 225.962 639.152 225.962C636.436 225.962 634.433 228.589 633.364 233.554C632.652 236.804 632.562 240.099 632.54 240.856H631.538V225.962H623.078V241.19H624.77V226.296H629.846V241.19H634.232V241.034C634.232 240.878 634.299 226.296 639.152 226.296C644.006 226.296 644.072 240.878 644.072 241.034V241.19H645.764V241.034C645.764 240.99 645.742 237.25 644.941 233.554Z" fill="white"/>
</svg>
