<svg width="60" height="46" viewBox="0 0 60 46" fill="none" xmlns="http://www.w3.org/2000/svg">
<path fill-rule="evenodd" clip-rule="evenodd" d="M51.6509 26.0024C49.553 26.0143 47.7365 26.5184 46.2129 27.269C46.1143 27.0737 46.0157 26.8828 45.9196 26.6968L45.9196 26.6967C45.4675 25.8213 45.0714 25.0542 44.9942 24.4547C44.9757 24.3071 44.9566 24.1695 44.9382 24.0376C44.8515 23.4149 44.7823 22.918 44.8887 22.0859C44.9788 21.3806 45.2924 20.4689 45.4729 19.9443L45.4729 19.9442L45.4729 19.9442L45.473 19.9439C45.5506 19.7185 45.6035 19.5647 45.6035 19.5295C45.5916 19.4239 45.4744 18.908 44.2674 18.8962C43.0604 18.8845 42.0172 19.1308 41.9 19.4474C41.7828 19.764 41.5484 20.491 41.3961 21.2415C41.1851 22.3438 38.9818 26.2487 37.7278 28.3008C37.3176 27.5034 36.966 26.7998 36.8956 26.2369C36.8772 26.0894 36.858 25.9519 36.8397 25.8201L36.8396 25.8195L36.8395 25.8191C36.7529 25.1968 36.6838 24.7 36.7902 23.8682C36.8803 23.163 37.194 22.2514 37.3745 21.7268L37.3745 21.7268C37.4521 21.5012 37.5051 21.3471 37.5051 21.3119C37.4934 21.2063 37.3762 20.6904 36.1692 20.6786C34.9619 20.6669 33.919 20.9132 33.8018 21.2298C33.7533 21.3608 33.7028 21.566 33.642 21.8131C33.5559 22.1633 33.449 22.5976 33.2978 23.0239C33.0708 23.6944 30.5613 29.2914 29.5748 31.4918L29.5747 31.4919L29.5747 31.4919L29.5745 31.4924L29.3599 31.9712C28.9731 32.8389 28.6334 33.5308 28.3871 33.9999C28.2152 34.3276 28.2778 34.2145 28.3231 34.1326C28.3427 34.0973 28.359 34.0678 28.352 34.0819C28.141 34.4806 28.0238 34.7034 28.0238 34.7034V34.7153C27.8597 35.0084 27.6839 35.2898 27.6018 35.2898C27.5432 35.2898 27.426 34.5041 27.6252 33.4254C27.9133 31.9216 28.4756 29.8589 28.8172 28.606L28.8172 28.6059L28.8172 28.6058L28.8173 28.6057C28.9897 27.973 29.1059 27.5468 29.102 27.5035C29.102 27.4981 29.1038 27.4878 29.1062 27.4733C29.1297 27.332 29.2195 26.7939 28.4222 26.5068C27.7327 26.2516 27.4011 26.5448 27.2614 26.6682L27.2614 26.6683C27.2278 26.698 27.2053 26.7179 27.1916 26.7179C27.1213 26.7179 27.0627 26.9055 27.0627 26.9055C27.0627 26.9055 28.012 22.9304 25.2461 22.9304C23.5116 22.9304 21.1208 24.8183 19.9371 26.5421C19.7104 26.6661 19.4066 26.8319 19.0464 27.0285L19.0393 27.0324C18.2085 27.4859 17.0797 28.102 15.9055 28.7467C15.6476 28.8874 15.3861 29.0318 15.1245 29.1763L15.1242 29.1764C14.7319 29.3931 14.3396 29.6098 13.96 29.8138L13.8312 29.6728C12.7964 28.5687 11.4902 27.564 10.1863 26.5611C7.2668 24.3155 4.35915 22.0791 4.53739 18.7555C4.63115 17.0083 5.24057 12.3998 16.4448 6.81802C25.6214 2.24471 32.9697 3.49944 34.247 6.29033C36.0636 10.2773 30.3209 17.6884 20.7811 18.7555C17.148 19.1659 15.2375 17.7588 14.7571 17.2311C14.2532 16.6799 14.1829 16.6565 13.9954 16.762C13.6906 16.9262 13.8782 17.4187 13.9954 17.7119C14.2766 18.4506 15.4486 19.764 17.441 20.4207C19.1871 20.9953 23.4532 21.3119 28.6099 19.3184C34.3878 17.0786 38.8999 10.8636 37.5755 5.66883C36.2278 0.380211 27.4614 -1.3553 19.1755 1.58803C14.2414 3.34699 8.89714 6.09098 5.05306 9.69099C0.482346 13.9594 -0.244279 17.6884 0.0604347 19.2363C0.854826 23.3498 5.27657 26.3966 8.74073 28.7835C9.92784 29.6015 11.0025 30.342 11.7802 31.0213C11.693 31.0683 11.6096 31.1152 11.5301 31.16L11.5299 31.1601L11.5299 31.1601L11.5296 31.1603C11.4704 31.1936 11.4133 31.2258 11.3583 31.2559C9.83473 32.0062 4.03344 35.0435 2.58019 38.2564C0.939418 41.8916 2.83802 44.5067 4.10376 44.8585C8.01816 45.9491 12.0263 43.9908 14.1945 40.766C16.3508 37.5412 16.0931 33.3549 15.0969 31.4435L15.0616 31.3731L16.257 30.6696C17.0307 30.2122 17.7925 29.7901 18.4604 29.4264C18.0854 30.4466 17.8158 31.6545 17.6753 33.4134C17.5112 35.4774 18.355 38.1509 19.4684 39.2063C19.9606 39.6635 20.5466 39.6753 20.9099 39.6753C22.1991 39.6753 22.7851 38.6081 23.4297 37.33C24.2266 35.7704 24.9298 33.9646 24.9298 33.9646C24.9298 33.9646 24.0508 38.8545 26.4534 38.8545C27.3323 38.8545 28.2113 37.717 28.6098 37.1307V37.1424C28.6098 37.1424 28.6332 37.1072 28.6801 37.0252C28.7293 36.9524 28.7762 36.8781 28.8208 36.8025V36.779C29.1724 36.1692 29.9576 34.7738 31.1296 32.4637C32.6413 29.4852 34.0947 25.7562 34.0947 25.7562C34.0947 25.7562 34.2353 26.6708 34.6689 28.1718C34.8474 28.7891 35.1721 29.4456 35.4989 30.1064L35.499 30.1066L35.4991 30.1068L35.4992 30.1071C35.6442 30.4003 35.7896 30.6943 35.9228 30.9862C35.5712 31.4787 35.3603 31.7602 35.3603 31.7602L35.372 31.772C35.0908 32.1472 34.7743 32.546 34.4463 32.9446C34.2058 33.2323 33.9559 33.5282 33.7085 33.821L33.7079 33.8217L33.7079 33.8217C32.7255 34.9845 31.7833 36.0997 31.6335 36.4744C31.4108 37.0254 31.4577 37.4358 31.8913 37.7643C32.2078 37.9988 32.7703 38.0456 33.368 37.9988C34.4463 37.9283 35.1963 37.6587 35.5714 37.4944C36.1573 37.2834 36.8254 36.9668 37.47 36.4977C38.6419 35.6301 39.3568 34.3988 39.2865 32.7571C39.2514 31.8542 38.9584 30.9629 38.5951 30.1186L38.5965 30.1165C38.7015 29.9648 38.8066 29.8129 38.9115 29.6496C40.7632 26.9407 42.193 23.9623 42.193 23.9623C42.193 23.9623 42.3337 24.8769 42.7673 26.3779C42.9499 27.0033 43.2826 27.6762 43.6162 28.351C43.6892 28.4986 43.7623 28.6463 43.8338 28.7937C42.0993 30.2126 41.0093 31.8543 40.6343 32.9331C39.9428 34.9266 40.4819 35.8295 41.5016 36.0406C41.9585 36.1344 42.6149 35.9233 43.107 35.7123C43.7165 35.5129 44.4548 35.1727 45.1347 34.6686C46.3067 33.8009 47.4318 32.593 47.3732 30.9631C47.338 30.2126 47.1388 29.4738 46.8692 28.7702C48.3459 28.1605 50.2561 27.8087 52.6822 28.1018C57.8975 28.7116 58.9289 31.9715 58.7297 33.3318C58.5305 34.6922 57.4406 35.4426 57.0771 35.6771C56.7138 35.8999 56.5966 35.9821 56.6318 36.1461C56.6787 36.3925 56.8427 36.3807 57.1592 36.3339C57.5928 36.2634 59.9016 35.2199 59.9954 32.7105C60.136 29.4853 57.0771 25.9674 51.6509 26.0024ZM11.4286 39.5699C9.70581 41.4579 7.27982 42.1732 6.24848 41.5634C5.1351 40.9184 5.56861 38.1393 7.69001 36.1341C8.97918 34.9145 10.6551 33.7888 11.7568 33.0969C11.9043 33.0056 12.0981 32.889 12.3256 32.7521L12.3267 32.7514L12.3281 32.7506C12.4795 32.6595 12.6458 32.5595 12.8233 32.452C12.8936 32.4052 12.9405 32.3816 12.9405 32.3816C13.0225 32.3347 13.1162 32.2761 13.2099 32.2175L13.21 32.2175L13.21 32.2174C13.9952 35.0787 13.2452 37.5881 11.4286 39.5699ZM23.6649 31.9282L23.6649 31.9282C23.8016 31.5712 23.9244 31.2504 24.0274 30.9979C24.4024 30.0832 25.8674 26.0024 25.5627 25.4395C25.3047 25.0056 24.2735 25.3574 23.3241 26.4127C22.7381 27.0695 21.7419 28.758 21.2731 30.177C20.3474 32.9914 20.7457 35.8409 21.4021 36.0168C22.0327 36.1915 23.0084 33.6429 23.6649 31.9283L23.6649 31.9282ZM34.4228 35.9699C34.165 36.099 33.9306 36.1927 33.8251 36.1225C33.7431 36.0756 33.9305 35.8997 33.9305 35.8997C33.9305 35.8997 35.2314 34.5042 35.747 33.8593C35.8473 33.7308 35.9545 33.5955 36.0672 33.4533L36.0679 33.4523L36.0681 33.4522C36.2842 33.1793 36.5204 32.8811 36.7666 32.5576V32.6983C36.7668 34.3868 35.1494 35.5126 34.4228 35.9699ZM42.9078 32.2057C42.2751 33.566 42.2515 33.9999 42.439 34.1406C43.3533 33.8122 44.8534 33.0266 44.865 30.9158C44.8769 30.5991 44.8064 30.2591 44.6892 29.9073C43.7165 30.7634 43.154 31.6663 42.9078 32.2057Z" fill="#CF649A"/>
</svg>
