<svg width="60" height="61" viewBox="0 0 60 61" fill="none" xmlns="http://www.w3.org/2000/svg">
<path d="M15.2044 8.94966L30 7.39903L44.7956 8.95153L56.25 24.2122L30 54.5253L3.75 24.2122L15.2044 8.94966Z" fill="#FDB300"/>
<path d="M14.3831 24.2028L30 54.5253L3.75 24.2028H14.3831ZM45.6169 24.2028L30 54.5253L56.25 24.2028H45.6169Z" fill="#EA6C00"/>
<path d="M14.3833 24.2028H45.6171L30.0002 54.5253L14.3833 24.2028Z" fill="#FDAD00"/>
<path d="M30.0002 7.39903L15.2046 8.94966L14.3833 24.2028L30.0002 7.39903ZM30.0002 7.39903L44.7958 8.94966L45.6171 24.2028L30.0002 7.39903Z" fill="#FDD231"/>
<path d="M56.25 24.2028L44.7956 8.94966L45.6169 24.2028H56.25ZM3.75 24.2028L15.2044 8.94966L14.3831 24.2028H3.75Z" fill="#FDAD00"/>
<path d="M30.0002 7.39903L14.3833 24.2028H45.6171L30.0002 7.39903Z" fill="#FEEEB7"/>
</svg>
