<svg width="247" height="189" viewBox="0 0 247 189" fill="none" xmlns="http://www.w3.org/2000/svg">
<path d="M71.1416 129.669H66.4944V127.395H75.0637L69.9111 136.415H74.9539V138.7H66L71.1416 129.669Z" fill="#00676C"/>
<path d="M83.9626 126.472C85.6912 126.472 87.1633 127.084 88.3792 128.307C89.6023 129.53 90.2139 131.006 90.2139 132.734C90.2139 134.463 89.6023 135.939 88.3792 137.162C87.1633 138.385 85.6912 138.997 83.9626 138.997C82.2415 138.997 80.7693 138.385 79.5461 137.162C78.323 135.939 77.7114 134.463 77.7114 132.734C77.7114 131.006 78.323 129.53 79.5461 128.307C80.7693 127.084 82.2415 126.472 83.9626 126.472ZM83.9626 128.812C82.8787 128.812 81.9521 129.197 81.1831 129.966C80.4214 130.735 80.0405 131.658 80.0405 132.734C80.0405 133.818 80.4214 134.741 81.1831 135.503C81.9521 136.265 82.8787 136.646 83.9626 136.646C85.0466 136.646 85.9695 136.265 86.7312 135.503C87.5002 134.741 87.8848 133.818 87.8848 132.734C87.8848 131.658 87.5002 130.735 86.7312 129.966C85.9695 129.197 85.0466 128.812 83.9626 128.812Z" fill="#00676C"/>
<path d="M95.1357 130.427V138.7H92.8506V127.395H95.1357V128.713C95.6118 127.424 96.5676 126.78 98.0032 126.78C99.2263 126.78 100.197 127.216 100.915 128.087C101.64 128.951 102.013 130.039 102.035 131.35V138.7H99.761V131.438C99.761 130.786 99.5229 130.23 99.0469 129.768C98.5708 129.299 98.0032 129.065 97.344 129.065C96.6921 129.065 96.1282 129.292 95.6521 129.746C95.3884 130.017 95.2163 130.244 95.1357 130.427Z" fill="#00676C"/>
<path d="M108.891 136.14C109.271 136.477 109.964 136.646 110.967 136.646C112.051 136.646 112.978 136.265 113.747 135.503C113.842 135.4 114.036 135.173 114.329 134.822L116.603 135.635C116.046 136.404 115.644 136.913 115.395 137.162C114.171 138.385 112.696 138.997 110.967 138.997C109.246 138.997 107.774 138.385 106.551 137.162C105.327 135.939 104.716 134.463 104.716 132.734C104.716 131.006 105.327 129.53 106.551 128.307C107.774 127.084 109.246 126.472 110.967 126.472C112.447 126.472 113.743 126.919 114.856 127.813C115.039 127.966 115.219 128.131 115.395 128.307C115.468 128.38 115.677 128.611 116.021 128.999L114.878 130.153L108.891 136.14ZM112.692 129.109C112.436 128.911 111.861 128.812 110.967 128.812C109.89 128.812 108.968 129.197 108.198 129.966C107.437 130.728 107.056 131.65 107.056 132.734C107.056 133.621 107.155 134.196 107.353 134.459L112.692 129.109Z" fill="#00676C"/>
<path d="M193.152 70.7998V71.5998C193.152 72.1998 192.952 137.7 171.152 137.7C149.352 137.7 149.052 72.1998 149.052 71.5998V70.7998H129.352V139.2H136.952V72.2998H141.452C141.552 75.7998 141.952 90.5998 145.152 105.2C149.952 127.5 158.952 139.2 171.152 139.2C183.352 139.2 192.352 127.5 197.152 105.2C200.752 88.5998 200.752 71.6998 200.752 71.5998V70.7998H193.152Z" fill="#00676C"/>
<path d="M164.552 75.9001C159.752 53.6001 150.752 41.8001 138.552 41.8001C126.352 41.8001 117.352 53.6001 112.552 75.9001C109.352 90.5001 108.952 105.3 108.852 108.7H104.352V41.8001H66.3521V110.2H73.9521V43.3001H96.7521V110.2H116.452V109.5C116.452 108.8 116.752 43.3001 138.552 43.3001C160.352 43.3001 160.652 108.8 160.652 109.5V110.2H168.252V109.5C168.252 109.3 168.152 92.5001 164.552 75.9001Z" fill="#00676C"/>
<g clip-path="url(#clip0_27_225)">
<path d="M92.5127 40.7556C68.2944 39.9847 33.7391 35.6268 24.616 53.7788C14.649 73.7192 40.2434 86.7111 57.3124 97.4356C69.2018 105.746 66.9738 114.889 55.0139 126.88C28.2662 153.6 46.7145 180.435 91.4424 173.563C110.907 170.356 127.914 161.081 144.034 151.952C174.936 134.412 196.715 140.004 216.398 125.962C229.61 116.597 216.511 100.395 208.798 90.6182C202.248 82.459 200.285 72.5946 203.244 62.7167C205.771 50.4128 205.524 31.2218 185.86 28.518C176.988 27.7392 167.603 31.8684 158.411 31.3602C147.001 30.6573 140.041 22.6861 128.782 21.5226C106.862 19.2216 109.905 41.0019 92.5127 40.7556Z" stroke="#00676C" stroke-opacity="0.31" stroke-width="0.8" stroke-miterlimit="10"/>
<path d="M132.704 27.9095C142.838 28.8848 149.343 35.7485 159.605 36.3917C167.658 36.9007 176.201 33.1904 184.137 34.0922C201.942 36.2931 203.072 53.6582 200.656 64.6991C198.59 73.5762 200.433 82.3439 205.933 89.8144C212.704 98.8437 223.857 113.468 211.979 122.085C194.201 134.972 174.504 130.687 146.564 146.027C132.083 154.045 116.803 162.196 99.5552 164.757C59.7633 170.629 43.1056 146.922 65.7545 123.243C75.9332 112.604 78.015 104.232 67.3844 96.9275C52.8402 86.8762 30.4866 75.3108 39.4922 57.5517C47.752 41.3468 78.3626 44.7053 99.8153 44.9983C115.162 45.2704 113.106 26.1595 132.704 27.9095Z" stroke="#00676C" stroke-opacity="0.31" stroke-width="0.752" stroke-miterlimit="10"/>
<path d="M136.444 34.5754C145.671 35.2957 151.503 41.1187 160.656 41.6646C167.837 42.1306 175.395 39.0804 182.41 39.9162C198.169 41.863 199.916 56.886 198.073 66.7121C196.644 74.5861 198.359 82.31 203.024 89.0181C208.955 97.3766 218.104 110.34 207.604 118.2C191.864 129.912 174.097 126.833 149.169 140.276C136.272 147.132 122.69 153.975 107.427 156.148C72.817 160.854 57.9497 140.276 76.4901 119.576C84.8927 110.318 86.5035 102.958 77.4958 96.3821C65.0233 87.2964 46.3631 76.8652 54.4076 61.287C61.7648 47.0669 88.1698 49.5002 107.113 49.4908C120.705 49.3364 119.326 33.2259 136.444 34.5754Z" stroke="#00676C" stroke-opacity="0.31" stroke-width="0.72" stroke-miterlimit="10"/>
<path d="M140.208 41.1126C148.178 41.6666 153.682 46.33 161.702 46.907C168.005 47.2998 174.604 44.7811 180.722 45.7025C194.411 47.5236 196.768 60.1742 195.495 68.7551C194.677 75.6636 196.287 82.3965 200.184 88.3658C205.157 95.8863 212.421 107.355 203.211 114.474C189.597 124.995 173.685 123.229 151.833 134.329C140.525 140.051 128.699 145.672 115.545 147.373C86.0036 151.057 72.6317 133.749 87.6103 116.032C94.1824 108.103 95.3272 101.784 87.9031 95.9743C77.4581 87.8616 62.5752 78.5195 69.6139 65.1299C76.1079 52.8568 98.4104 54.1612 114.845 53.8495C126.12 53.4544 125.559 40.1031 140.208 41.1126Z" stroke="#00676C" stroke-opacity="0.31" stroke-width="0.672" stroke-miterlimit="10"/>
<path d="M143.972 47.6503C150.862 48.0087 155.822 51.5792 162.905 51.9993C168.337 52.3492 173.956 50.5209 179.186 51.3084C190.849 52.9965 193.419 63.3404 193.1 70.7994C192.906 76.6569 194.399 82.336 197.491 87.5027C201.527 94.3064 206.796 104.174 199.008 110.53C187.477 119.868 173.46 119.376 154.447 128.36C144.704 133.077 134.615 137.353 123.564 138.552C99.0867 141.184 87.3773 127.056 98.2079 112.357C103.004 105.81 103.673 100.472 97.8815 95.4508C89.6364 88.2515 78.2597 80.0122 84.3964 68.8873C89.9928 58.6293 108.218 58.9562 122.03 58.2053C131.535 57.5728 131.759 47.0486 143.972 47.6503Z" stroke="#00676C" stroke-opacity="0.31" stroke-width="0.624" stroke-miterlimit="10"/>
<path d="M147.692 54.1942C153.541 54.3195 158.002 56.7899 163.759 57.1795C168.362 57.4791 172.731 56.3547 177.394 57.0178C187.027 58.5425 189.991 66.5809 190.447 72.6673C190.869 77.4954 192.239 82.1792 194.518 86.5917C197.655 92.641 200.979 100.931 194.525 106.538C185.12 114.685 173.225 115.462 156.918 122.35C149.124 126.071 140.415 128.572 131.479 129.654C112.056 131.174 102.024 120.317 108.864 108.485C110.497 106.176 111.268 103.679 111.1 101.252C110.933 98.8244 109.831 96.5528 107.908 94.6694C101.735 88.4357 94.062 81.3911 99.1831 72.3941C103.956 64.0457 118.063 63.4327 129.401 62.3116C136.905 61.6975 138.002 53.9858 147.692 54.1942Z" stroke="#00676C" stroke-opacity="0.31" stroke-width="0.576" stroke-miterlimit="10"/>
<path d="M151.456 60.7318C155.984 61.0667 160.44 61.6112 164.795 62.3616C168.43 62.2655 172.032 62.3906 175.558 62.7353C183.131 64.195 186.474 69.8369 187.726 74.6719C188.646 78.317 190.063 82.2223 191.52 85.81C193.719 91.1425 195.093 97.8246 190.013 102.645C182.695 109.639 172.478 111.758 159.315 116.448C153.054 118.939 146.23 120.458 139.371 120.885C136.28 121.113 133.242 120.859 130.476 120.143C127.71 119.426 125.287 118.264 123.383 116.741C121.479 115.219 120.141 113.374 119.468 111.341C118.795 109.309 118.803 107.139 119.492 104.991C120.855 101.241 120.229 97.4417 117.734 94.3266C113.717 89.0136 109.708 83.2014 113.852 76.2945C117.997 69.3877 127.678 68.166 136.389 66.8553C142.34 65.937 144.236 60.8633 151.456 60.7318Z" stroke="#00676C" stroke-opacity="0.31" stroke-width="0.544" stroke-miterlimit="10"/>
<path d="M155.22 67.2694C158.823 67.0532 162.398 67.1326 165.87 67.5062C168.531 67.6373 171.132 67.9593 173.634 68.4676C178.956 69.9808 183.005 72.9267 184.966 76.7142C186.5 79.3687 187.673 82.1435 188.473 85.0054C190.026 89.4837 188.93 94.4293 185.417 98.7969C179.62 104.533 171.125 108.744 161.713 110.545C156.962 111.816 151.994 112.358 147.173 112.131C142.845 111.939 138.877 110.798 135.818 108.866C132.759 106.934 130.759 104.307 130.094 101.346C129.578 98.7835 128.814 96.269 127.806 93.8188C125.549 89.5502 125.863 84.6273 128.684 80.0749C130.324 78.0365 132.501 76.2012 135.084 74.6794C137.666 73.1575 140.601 71.9806 143.711 71.2195C147.7 70.0021 150.736 67.6969 155.22 67.2694Z" stroke="#00676C" stroke-opacity="0.31" stroke-width="0.496" stroke-miterlimit="10"/>
</g>
<defs>
<clipPath id="clip0_27_225">
<rect width="224.677" height="153.527" fill="white" transform="translate(0 37.3273) rotate(-9.35647)"/>
</clipPath>
</defs>
</svg>
