<svg width="50" height="50" viewBox="0 0 50 50" fill="none" xmlns="http://www.w3.org/2000/svg">
    <path d="M20.4584 26.0417C20.5001 25.6875 20.5418 25.3542 20.5418 25C20.5418 24.6458 20.5001 24.3125 20.4584 23.9583L22.7084 22.2708C22.9168 22.125 22.9168 21.875 22.8334 21.6042L20.6876 18C20.5626 17.7708 20.2709 17.7083 20.0418 17.7708L17.3751 18.8125C16.8126 18.3958 16.2084 18.0625 15.5626 17.7917L15.1459 15.0208C15.1459 14.7708 14.9168 14.5833 14.6459 14.5833H10.4168C10.1043 14.5833 9.87509 14.7708 9.83342 15.0208L9.37509 17.7708C8.77092 18.0208 8.16676 18.3958 7.60426 18.75L4.93759 17.7083C4.68759 17.6458 4.41676 17.7083 4.29176 17.9792L2.14592 21.5833C2.02092 21.875 2.08342 22.1042 2.29176 22.2708L4.54176 23.9583C4.50009 24.3125 4.47926 24.6667 4.47926 25C4.47926 25.3542 4.52092 25.6875 4.56259 26.0417L2.29176 27.75C2.08342 27.8958 2.08342 28.1875 2.16676 28.4167L4.31259 32.0208C4.43759 32.2917 4.72926 32.2917 4.95842 32.2917L7.62509 31.25C8.18759 31.625 8.79176 31.9583 9.43759 32.2292L9.85426 34.9792C9.87509 35.2292 10.1043 35.4167 10.4168 35.4167H14.6668C14.9376 35.4167 15.1668 35.2292 15.1876 34.9792L15.6251 32.2292C16.2501 31.9792 16.8543 31.6042 17.4168 31.25L20.0834 32.2917C20.3334 32.3542 20.6043 32.2917 20.7293 32.0208L22.9168 28.4167C23.0001 28.1875 22.9168 27.9167 22.7501 27.75L20.4584 26.0417ZM12.5001 28.6458C10.4168 28.6458 8.75009 27.0208 8.75009 25C8.75009 22.9792 10.4168 21.3542 12.5001 21.3542C14.5834 21.3542 16.2501 22.9792 16.2501 25C16.2501 27.0208 14.5834 28.6458 12.5001 28.6458ZM35.4168 2.08333H14.5834C13.4784 2.08333 12.4185 2.52232 11.6371 3.30372C10.8557 4.08512 10.4168 5.14493 10.4168 6.25V12.5H14.5834V8.33333H35.4168V41.6667H14.5834V37.5H10.4168V43.75C10.4168 44.8551 10.8557 45.9149 11.6371 46.6963C12.4185 47.4777 13.4784 47.9167 14.5834 47.9167H35.4168C36.5218 47.9167 37.5816 47.4777 38.363 46.6963C39.1444 45.9149 39.5834 44.8551 39.5834 43.75V6.25C39.5834 5.14493 39.1444 4.08512 38.363 3.30372C37.5816 2.52232 36.5218 2.08333 35.4168 2.08333Z" fill="#F3F3F3"/>
</svg>
