<svg width="50" height="50" viewBox="0 0 50 50" fill="none" xmlns="http://www.w3.org/2000/svg">
    <path d="M34.3749 25C39.5833 25 43.7499 29.1667 43.7499 34.375C43.7499 36.2083 43.2291 37.9375 42.3124 39.375L48.7291 45.8333L45.8333 48.7292L39.3332 42.3333C37.8957 43.2292 36.1874 43.75 34.3749 43.75C29.1666 43.75 24.9999 39.5833 24.9999 34.375C24.9999 29.1667 29.1666 25 34.3749 25ZM34.3749 29.1667C32.9936 29.1667 31.6688 29.7154 30.6921 30.6922C29.7153 31.6689 29.1666 32.9937 29.1666 34.375C29.1666 35.7563 29.7153 37.0811 30.6921 38.0579C31.6688 39.0346 32.9936 39.5833 34.3749 39.5833C35.7563 39.5833 37.081 39.0346 38.0578 38.0579C39.0345 37.0811 39.5833 35.7563 39.5833 34.375C39.5833 32.9937 39.0345 31.6689 38.0578 30.6922C37.081 29.7154 35.7563 29.1667 34.3749 29.1667ZM39.5833 16.6667H6.24992V37.5H21.1874C21.5416 39 22.1458 40.3958 22.9166 41.6667H6.24992C3.93742 41.6667 2.08325 39.7917 2.08325 37.5V12.5C2.08325 10.1875 3.93742 8.33334 6.24992 8.33334H18.7499L22.9166 12.5H39.5833C40.6883 12.5 41.7481 12.939 42.5295 13.7204C43.3109 14.5018 43.7499 15.5616 43.7499 16.6667V24.6042C42.5416 23.4583 41.1458 22.5208 39.5833 21.875V16.6667Z" fill="#1F2833"/>
</svg>
