<svg width="60" height="60" viewBox="0 0 60 60" fill="none" xmlns="http://www.w3.org/2000/svg">
    <path d="M10 15H50V40H10M50 45C51.3261 45 52.5979 44.4732 53.5355 43.5355C54.4732 42.5979 55 41.3261 55 40V15C55 12.225 52.75 10 50 10H10C7.225 10 5 12.225 5 15V40C5 41.3261 5.52678 42.5979 6.46447 43.5355C7.40215 44.4732 8.67392 45 10 45H0V50H60V45H50Z" fill="#1F2833"/>
    <path d="M27.7501 38.85C29.5301 38.15 29.1401 36.22 28.2401 35C27.3501 33.75 26.1201 32.89 24.8801 32.06C24.0001 31.5 23.1901 30.8 22.5401 30C22.2601 29.67 21.6901 29.06 22.2701 28.94C22.8601 28.82 23.8801 29.4 24.4001 29.62C25.3101 30 26.2101 30.44 27.0501 30.96L28.0601 29.26C26.5001 28.23 24.5001 27.32 22.6401 27.05C21.5801 26.89 20.4601 27.11 20.1001 28.26C19.7801 29.25 20.2901 30.25 20.8701 31.03C22.2401 32.86 24.3701 33.74 25.9601 35.32C26.3001 35.65 26.7101 36.04 26.9101 36.5C27.1201 36.94 27.0701 36.97 26.6001 36.97C25.3601 36.97 23.8101 36 22.8001 35.36L21.7901 37.06C23.3201 38 25.8801 39.47 27.7501 38.85ZM38.8401 23.25C39.0601 23.03 39.0601 22.67 38.8401 22.46L37.5401 21.16C37.3301 20.95 36.9701 20.95 36.7601 21.16L35.7401 22.18L37.8201 24.26M29.0001 28.92V31H31.0801L37.2301 24.85L35.1501 22.77L29.0001 28.92Z" fill="#1F2833"/>
</svg>
